# xmcd
#
# Track frame offsets:
#	150
#	18084
#	38804
#	58709
#	77506
#	96624
#	113046
#	131446
#	149394
#	167544
#	187790
#	212439
#	230728
#
# Disc length: 3560 seconds
#
# Revision: 1
# Processed by: cddbd v1.5.2PL0 Copyright (c) Steve Scherf et al.
# Submitted via: audiograbber 1.83.01
#
DISCID=a40de60d
DTITLE=Joan Armatrading - Into The Blues
DYEAR=2007
DGENRE=
TTITLE0=Woman In love
TTITLE1=Play The Blues
TTITLE2=Into The Blues
TTITLE3=Liza
TTITLE4=Secular Songs
TTITLE5=My Baby´s Gone
TTITLE6=D.N.A
TTITLE7=Baby Bue Eyes
TTITLE8=Deep Down
TTITLE9=There Ain´t A Girl Alive
TTITLE10=Emty Highway
TTITLE11=Mama Papa
TTITLE12=Something´s Gotta Blow
EXTD=
EXTT0=
EXTT1=
EXTT2=
EXTT3=
EXTT4=
EXTT5=
EXTT6=
EXTT7=
EXTT8=
EXTT9=
EXTT10=
EXTT11=
EXTT12=
PLAYORDER=
